<?xml version="1.0" standalone="no"?>
<!DOCTYPE svg PUBLIC "-//W3C//DTD SVG 20010904//EN"
 "http://www.w3.org/TR/2001/REC-SVG-20010904/DTD/svg10.dtd">
<svg version="1.0" xmlns="http://www.w3.org/2000/svg"
 width="1024.000000pt" height="1024.000000pt" viewBox="0 0 1024.000000 1024.000000"
 preserveAspectRatio="xMidYMid meet">
<metadata>
Created by potrace 1.14, written by Peter Selinger 2001-2017
</metadata>
<g transform="translate(0.000000,1024.000000) scale(0.100000,-0.100000)"
fill="#000000" stroke="none">
<path d="M7698 8224 c-20 -7 -54 -15 -75 -19 -21 -3 -45 -7 -53 -10 -69 -20
-203 -29 -410 -28 -218 2 -489 2 -800 1 -261 -1 -574 8 -975 26 -55 3 -158 8
-230 11 -71 3 -173 8 -225 10 -122 6 -654 6 -835 0 -278 -8 -619 -29 -825 -50
-25 -2 -72 -6 -105 -9 -33 -3 -80 -8 -105 -11 -25 -3 -65 -8 -90 -10 -25 -3
-65 -8 -90 -10 -25 -3 -67 -8 -95 -11 -27 -3 -63 -9 -80 -13 -16 -4 -50 -4
-75 0 -47 6 -198 4 -260 -5 -25 -3 -47 2 -78 19 -42 24 -44 24 -70 7 -122 -79
-185 -188 -175 -307 7 -82 6 -158 -2 -195 -30 -130 10 -237 112 -297 91 -53
216 -26 260 56 11 20 30 80 42 134 23 100 37 123 110 181 29 22 114 66 140 71
10 2 36 8 57 14 25 7 97 9 204 5 297 -11 467 -8 665 12 305 30 740 20 753 -17
2 -5 10 -9 17 -9 28 0 32 -22 42 -235 7 -146 7 -356 2 -1140 -2 -352 5 -638
17 -696 2 -13 5 -67 6 -119 2 -119 -17 -182 -70 -232 -37 -36 -103 -65 -122
-53 -29 18 -191 24 -310 11 -36 -4 -76 -8 -90 -9 -14 -1 -35 6 -46 16 -20 17
-24 17 -52 3 -17 -9 -34 -21 -37 -26 -5 -8 -15 -6 -32 5 -20 14 -38 15 -97 9
-39 -4 -89 -6 -111 -4 -84 7 -162 2 -203 -14 -47 -17 -65 -13 -132 32 -19 13
-42 21 -52 19 -10 -3 -18 -2 -18 2 0 11 160 246 171 249 5 2 9 7 9 12 0 10 48
66 112 130 59 58 89 126 93 205 5 106 -55 167 -169 170 -151 5 -280 -97 -382
-301 -25 -50 -68 -120 -95 -156 -45 -61 -266 -289 -278 -287 -4 0 -70 87 -149
192 -78 106 -157 210 -175 232 -327 402 -518 546 -630 476 -31 -19 -48 -48
-76 -126 -10 -28 -5 -88 14 -165 2 -8 4 -18 4 -23 1 -4 12 -12 26 -19 18 -8
28 -8 39 1 12 10 34 -18 133 -161 65 -95 120 -177 122 -183 2 -5 7 -12 10 -15
4 -3 18 -21 31 -40 14 -19 30 -42 37 -50 6 -8 32 -42 57 -75 24 -33 68 -88 98
-121 42 -49 61 -83 90 -161 25 -70 35 -111 32 -139 -10 -112 -86 -228 -284
-434 -114 -120 -164 -174 -201 -220 -21 -25 -79 -88 -131 -140 -92 -94 -158
-179 -158 -204 0 -6 -5 -17 -11 -23 -15 -15 -4 -74 21 -105 10 -14 45 -39 77
-56 32 -17 70 -44 86 -61 24 -25 31 -28 57 -21 16 5 39 15 51 24 14 10 29 12
43 6 17 -6 31 0 65 29 101 84 189 179 336 361 229 284 347 413 363 395 5 -6
46 -63 93 -127 46 -65 95 -132 109 -151 84 -114 138 -193 186 -273 31 -51 74
-112 97 -137 90 -98 254 -179 361 -179 56 0 122 19 123 34 1 7 5 33 10 58 22
110 -31 247 -160 409 -79 100 -81 102 -98 120 -44 45 -193 237 -195 251 -2 16
-39 80 -46 80 -4 0 -8 4 -8 10 0 5 -15 31 -34 57 -60 87 -72 152 -30 179 39
26 200 22 334 -7 68 -15 220 -20 263 -8 20 5 58 12 82 14 25 3 64 7 88 9 66 7
98 14 168 36 35 12 80 23 99 26 19 3 38 8 41 9 11 7 106 7 169 -1 96 -11 144
-11 158 -1 6 5 12 7 12 3 0 -3 16 1 37 9 20 8 37 14 38 13 1 -2 10 -17 19 -35
13 -27 15 -61 11 -230 -5 -208 -12 -410 -20 -540 -2 -43 -7 -130 -10 -193 -3
-63 -8 -146 -10 -185 -25 -457 -32 -667 -36 -1018 l-2 -248 -31 -23 c-35 -26
-88 -46 -121 -46 -12 0 -34 11 -48 24 -20 19 -34 23 -64 20 -86 -8 -309 -3
-388 9 -22 4 -62 9 -90 12 -121 14 -122 15 -211 96 -37 32 -73 59 -83 59 -154
5 -211 9 -236 15 -46 12 -158 7 -245 -10 -14 -3 -50 -9 -80 -15 -30 -6 -66
-13 -80 -16 -43 -10 -271 -13 -293 -4 -111 42 -101 31 -179 189 -60 121 -80
151 -115 177 -34 26 -50 32 -85 29 -58 -3 -74 -11 -88 -45 -21 -50 -19 -93 8
-175 23 -74 25 -95 26 -285 1 -201 2 -206 26 -241 22 -33 32 -39 110 -58 125
-30 168 -33 470 -36 151 -1 325 -6 385 -10 61 -4 135 -8 165 -10 53 -2 169
-14 200 -20 54 -10 127 -18 140 -16 8 2 22 9 31 17 15 13 21 13 53 -6 37 -20
37 -20 128 -2 70 14 127 18 242 16 83 -1 162 -5 176 -7 14 -3 52 -9 85 -12 33
-3 68 -8 77 -11 9 -3 32 -7 50 -9 28 -3 177 -27 243 -39 141 -26 163 -27 445
-31 146 -2 312 -6 370 -9 155 -7 312 -17 372 -22 29 -3 289 -7 578 -10 583 -4
582 -4 592 -19 5 -6 8 -6 8 2 0 12 30 10 52 -3 7 -5 8 -3 3 5 -6 10 -3 11 13
2 15 -8 22 -8 25 2 4 9 6 8 6 -2 1 -11 4 -11 16 -1 9 7 15 8 15 2 0 -11 18
-11 36 1 6 3 14 3 18 -1 12 -11 116 -9 116 3 0 5 4 4 9 -4 6 -10 10 -10 16 -1
6 9 10 9 16 -1 7 -12 9 -12 9 0 0 11 3 11 15 1 8 -7 15 -8 15 -3 0 5 10 9 23
9 69 1 199 20 287 40 14 3 32 6 40 5 113 -7 162 -5 205 7 132 37 227 134 238
243 6 55 -10 95 -55 141 -86 88 -282 153 -374 124 -13 -4 -27 -1 -35 6 -8 8
-30 23 -50 35 -33 19 -39 19 -75 6 -21 -8 -61 -14 -89 -13 -133 6 -295 0 -415
-15 -44 -6 -159 -24 -185 -29 -11 -2 -42 -7 -68 -10 -26 -4 -70 -11 -98 -16
-27 -5 -53 -9 -57 -9 -4 1 -9 0 -12 -1 -3 -1 -16 -3 -30 -5 -14 -1 -56 -6 -95
-11 -148 -18 -446 -8 -510 16 -14 5 -25 7 -25 3 0 -4 -11 3 -24 16 -23 21 -24
21 -67 6 -80 -30 -83 -30 -101 9 -42 87 -51 153 -50 371 0 116 -4 233 -9 260
-5 28 -11 60 -14 73 -8 43 -18 157 -19 209 -1 29 -3 53 -6 53 -3 0 -6 33 -7
73 -2 80 -20 209 -38 269 -9 31 -8 54 1 101 7 34 15 76 18 92 27 141 27 524 1
745 -2 19 -7 62 -11 95 -11 104 -12 119 -18 160 -3 22 -8 65 -11 95 -6 54 -9
82 -19 170 -24 203 -33 412 -21 485 39 228 49 796 20 1130 -2 28 -7 82 -10
120 -2 39 -7 86 -9 105 -3 19 -8 64 -11 100 -11 105 -23 206 -30 235 -2 11 -7
47 -10 80 -4 33 -10 78 -14 100 -10 56 4 90 44 109 35 17 116 21 170 9 17 -3
266 -7 555 -8 468 -1 587 -5 722 -20 21 -3 95 -7 165 -10 70 -3 139 -7 153
-10 14 -3 41 -8 60 -11 19 -4 69 -25 110 -47 77 -41 78 -41 205 -33 17 2 46
-3 66 -10 40 -13 122 -11 172 5 37 12 97 24 112 22 6 0 48 -3 95 -5 155 -8
222 48 234 194 6 75 0 86 -80 139 -32 22 -84 62 -114 90 -58 54 -140 101 -175
101 -11 0 -31 -7 -43 -16 -21 -15 -26 -13 -87 21 -79 44 -90 46 -137 29z
m-2638 -436 c23 -21 47 -35 52 -32 23 15 36 -19 37 -99 0 -45 3 -93 6 -107 3
-14 7 -50 10 -80 2 -30 8 -93 12 -140 10 -112 9 -828 -2 -1100 -19 -475 -9
-1038 21 -1200 14 -75 18 -179 17 -390 -1 -184 -11 -764 -14 -815 -2 -24 11
-262 15 -281 16 -81 23 -304 11 -381 -3 -18 -7 -45 -9 -60 -3 -16 -16 -65 -31
-110 -26 -83 -26 -133 0 -133 9 0 12 -9 10 -22 -21 -138 -22 -153 -11 -218 8
-49 50 -130 68 -130 6 0 8 -3 5 -7 -4 -3 -47 -11 -96 -17 -89 -11 -90 -11
-102 11 -14 26 -50 30 -69 8 -9 -11 -16 -12 -25 -5 -7 6 -17 10 -21 9 -5 -1
-17 -1 -28 0 -13 1 -16 4 -9 14 14 17 7 61 -23 135 -39 99 -45 205 -29 462 4
69 7 222 6 340 -5 485 -6 451 17 497 45 88 55 189 38 383 -3 36 -8 171 -11
300 -4 221 -10 366 -20 505 -2 33 -6 103 -10 155 -3 52 -7 118 -10 145 -2 28
-7 95 -10 150 -4 55 -8 116 -10 135 -2 19 -7 73 -10 120 -3 47 -8 110 -10 140
-6 66 -13 170 -21 300 -3 52 -7 118 -9 145 -21 321 -21 807 0 1095 5 78 17
202 20 219 2 9 4 28 4 43 1 25 3 27 27 18 21 -8 37 -5 78 14 65 31 83 29 136
-16z"/>
<path d="M6129 6396 c-5 -6 -9 -7 -9 -3 0 11 -83 -23 -123 -50 -48 -33 -78
-91 -82 -157 -4 -82 30 -146 79 -146 12 0 32 -12 45 -25 13 -14 31 -25 41 -25
10 0 35 -21 56 -47 75 -93 141 -144 204 -158 31 -7 69 -38 70 -59 1 -24 75
-96 124 -120 34 -17 63 -39 75 -60 24 -39 110 -124 196 -193 75 -61 154 -145
173 -183 13 -27 12 -31 -6 -55 -15 -19 -19 -32 -13 -48 6 -15 3 -32 -7 -52
-37 -73 -271 -395 -347 -479 -6 -6 -28 -33 -50 -61 -63 -78 -69 -85 -89 -108
-10 -12 -35 -42 -55 -67 -20 -25 -38 -47 -42 -50 -3 -3 -18 -23 -34 -45 -42
-56 -74 -86 -142 -129 -32 -21 -66 -49 -77 -63 -27 -37 -31 -99 -10 -153 22
-56 22 -121 0 -179 -20 -53 -15 -86 22 -127 42 -48 92 -67 170 -65 76 1 187
55 213 103 20 37 41 53 68 50 37 -3 67 27 91 92 12 31 27 62 33 69 7 6 18 25
25 40 10 23 115 190 211 337 19 29 70 134 97 200 50 123 141 231 264 315 l85
57 20 -27 c20 -27 45 -53 209 -214 47 -47 86 -88 86 -92 0 -11 85 -111 161
-189 111 -115 167 -187 204 -264 20 -42 39 -76 43 -77 39 -4 64 -22 144 -104
232 -238 393 -289 518 -164 39 39 52 72 44 107 -9 36 -53 98 -105 147 -23 22
-72 85 -108 140 -181 276 -317 427 -825 918 l-119 115 30 29 c27 25 106 95
173 153 14 12 41 35 60 53 91 80 121 106 185 162 38 33 81 71 96 85 15 14 51
45 80 70 29 25 60 52 69 60 8 8 60 53 115 100 55 47 109 93 120 103 11 11 38
32 61 47 56 39 75 72 81 140 9 98 -40 172 -112 169 -11 -1 -35 4 -52 9 -66 21
-150 7 -283 -47 -129 -53 -148 -59 -213 -67 -126 -14 -257 -92 -382 -226 -87
-94 -101 -110 -210 -248 -136 -171 -145 -181 -172 -174 -14 4 -24 17 -28 35
-7 31 -47 70 -98 94 -34 16 -87 63 -183 165 -33 36 -81 83 -105 106 -48 44
-107 109 -154 170 -229 294 -334 366 -538 368 -32 1 -62 -3 -68 -8z"/>
</g>
</svg>
